<svg height="496pt" viewBox="0 0 496 496" width="496pt" xmlns="http://www.w3.org/2000/svg"><path d="m24 280c-8.800781 0-16 7.199219-16 16v16c0 8.800781 7.199219 16 16 16h264c8.238281-19.839844 24-36.640625 40-47.921875v-.078125zm0 0" fill="#aab2bd"/><path d="m408 194.960938c0 26.078124-8.960938 50-23.847656 69.039062-.082032 0-.082032 0-.152344 0-1.359375 0-2.640625 0-4 .078125-18.878906.722656-36.480469 6.488281-51.441406 16v-.078125h-105.039063c-16.808593-14.320312-29.367187-33.359375-35.449219-55.121094 7.289063-5.839844 11.929688-14.800781 11.929688-24.878906 0-10.960938-5.519531-20.71875-14-26.398438 5.359375-27.761718 21.039062-51.839843 42.71875-68.242187 21.042969-15.757813 50.960938-11.039063 67.28125 9.519531 16.71875-20.957031 47.199219-24.957031 68.480469-8.558594 26.480469 20.480469 43.519531 52.558594 43.519531 88.640626zm0 0" fill="#ff826e"/><path d="m384.152344 264c57.367187.078125 103.847656 46.640625 103.847656 104 0 57.441406-46.558594 104-104 104-12.800781 0-25.121094-2.480469-36.480469-6.71875 4.082031-3.128906 8-6.5625 11.679688-10.242188l-78.808594-79.117187c-.152344-2.640625-.390625-5.28125-.390625-7.921875 0-14.160156 2.878906-27.679688 8-40 8.238281-19.839844 22.558594-36.640625 40.558594-47.921875 14.960937-9.511719 32.554687-15.277344 51.441406-16 1.359375-.078125 2.640625-.078125 4-.078125zm0 0" fill="#ffeaa7"/><path d="m280.398438 375.921875 78.808593 79.117187c-3.679687 3.679688-7.597656 7.121094-11.679687 10.242188-19.925782 15.117188-43.765625 22.71875-67.605469 22.71875v-.078125l.078125-111.921875.238281-.238281zm0 0" fill="#ff826e"/><path d="m280 376-79.199219 79.039062c-21.832031-21.839843-32.722656-50.480468-32.800781-79.117187h.078125zm0 0" fill="#ff826e"/><path d="m279.921875 487.921875v.078125c-2.640625 0-5.28125-.078125-7.921875-.320312-25.921875-1.832032-51.359375-12.800782-71.199219-32.640626l79.199219-79.039062zm0 0" fill="#ff826e"/><path d="m232.640625 328 47.597656 47.761719-.238281.238281-111.921875-.078125h-.078125c-.078125-16.402344 3.441406-32.808594 10.398438-47.921875 5.449218-11.601562 12.882812-22.480469 22.402343-32zm0 0" fill="#ff826e"/><path d="m152 56h48c0 13.28125-5.359375 25.28125-14.078125 33.921875-8.640625 8.71875-20.640625 14.078125-33.921875 14.078125h-48c0-13.28125 5.359375-25.28125 14.078125-33.921875 8.640625-8.71875 20.640625-14.078125 33.921875-14.078125zm0 0" fill="#b4dd7f"/><path d="m344 8h48c0 13.28125-5.359375 25.28125-14.078125 33.921875-8.640625 8.71875-20.640625 14.078125-33.921875 14.078125h-48c0-13.28125 5.359375-25.28125 14.078125-33.921875 8.640625-8.71875 20.640625-14.078125 33.921875-14.078125zm0 0" fill="#b4dd7f"/><path d="m104 136h-48c-26.480469 0-48-21.519531-48-48h48c26.480469 0 48 21.519531 48 48zm0 0" fill="#b4dd7f"/><g fill="#ac92ec"><path d="m136 200c0 16.078125 11.839844 29.441406 27.359375 31.601562 2.878906 4.796876 4.640625 10.320313 4.640625 16.398438 0 17.679688-14.320312 32-32 32s-32-14.320312-32-32c0-6.078125-1.761719-11.601562-4.640625-16.398438 1.519531.320313 3.039063.398438 4.640625.398438 17.679688 0 32-14.320312 32-32zm0 0"/><path d="m99.359375 231.601562c-15.519531-2.160156-27.359375-15.523437-27.359375-31.601562 0-17.679688 14.320312-32 32-32s32 14.320312 32 32-14.320312 32-32 32c-1.601562 0-3.121094-.078125-4.640625-.398438zm0 0"/><path d="m72 200c0 16.078125 11.839844 29.441406 27.359375 31.601562 2.878906 4.796876 4.640625 10.320313 4.640625 16.398438 0 17.679688-14.320312 32-32 32s-32-14.320312-32-32c0-6.078125 1.761719-11.601562 4.640625-16.398438 15.511719-2.160156 27.359375-15.523437 27.359375-31.601562zm0 0"/><path d="m163.359375 231.601562c-15.519531-2.160156-27.359375-15.523437-27.359375-31.601562 0-17.679688 14.320312-32 32-32 6.640625 0 12.878906 2.078125 18 5.601562 8.480469 5.679688 14 15.4375 14 26.398438 0 10.078125-4.640625 19.039062-11.921875 24.878906-5.519531 4.402344-12.476563 7.121094-20.078125 7.121094-1.601562 0-3.121094-.078125-4.640625-.398438zm0 0"/><path d="m44.640625 231.601562c-1.519531.320313-3.039063.398438-4.640625.398438-17.679688 0-32-14.320312-32-32s14.320312-32 32-32 32 14.320312 32 32c0 16.078125-11.847656 29.441406-27.359375 31.601562zm0 0"/></g><path d="m280 368c0 2.640625.238281 5.28125.398438 7.921875l-.160157-.167969-47.597656-47.753906h55.359375c-5.121094 12.320312-8 25.839844-8 40zm0 0" fill="#e6e9ed"/><path d="m272 487.679688v.320312h-104c-79.519531 0-144-64.480469-144-144v-16h154.398438c-6.957032 15.121094-10.476563 31.519531-10.398438 47.921875.078125 28.636719 10.960938 57.277344 32.800781 79.117187 19.839844 19.839844 45.277344 30.800782 71.199219 32.640626zm0 0" fill="#e6e9ed"/><path d="m431.558594 317.992188-10.589844-11.984376c-10.207031 9.023438-23.335938 13.992188-36.96875 13.992188s-26.761719-4.96875-36.96875-13.992188l-10.589844 11.984376c13.125 11.609374 30.023438 18.007812 47.558594 18.007812s34.433594-6.398438 47.558594-18.007812zm0 0"/><path d="m368 194.929688c0 1.535156-.046875 3.0625-.144531 4.582031l15.96875.96875c.113281-1.832031.175781-3.6875.175781-5.550781 0-27.441407-12.480469-52.824219-34.230469-69.632813-3.3125-2.5625-7.386719-5.296875-13.769531-5.296875v16c.902344 0 1.457031 0 3.984375 1.953125 17.808594 13.757813 28.015625 34.535156 28.015625 56.976563zm0 0"/><path d="m398.585938 257.0625c11.375-18.679688 17.414062-39.863281 17.414062-62.125 0-37.433594-17.007812-72.042969-46.664062-94.960938-19.320313-14.929687-45.582032-15.3125-65.335938-2.839843v-33.136719h40c30.871094 0 56-25.121094 56-56v-8h-56c-30.871094 0-56 25.121094-56 56v41.105469c-19.40625-12.328125-45.136719-12.3125-64.046875 1.894531-21.152344 15.894531-36.289063 38.089844-43.394531 63.222656-3.972656-1.335937-8.144532-2.222656-12.558594-2.222656-13.128906 0-24.703125 6.449219-32 16.246094-5.777344-7.757813-14.191406-13.4375-24-15.4375v-48.808594h40c30.871094 0 56-25.121094 56-56v-8h-56c-28.625 0-52.273438 21.609375-55.566406 49.359375-10.203125-10.671875-24.539063-17.359375-40.433594-17.359375h-56v8c0 30.878906 25.128906 56 56 56h40v16.808594c-9.808594 2-18.222656 7.679687-24 15.4375-7.296875-9.796875-18.871094-16.246094-32-16.246094-22.054688 0-40 17.945312-40 40 0 19.6875 14.328125 36 33.078125 39.304688-.652344 2.863281-1.078125 5.765624-1.078125 8.695312 0 9.039062 3.128906 17.296875 8.207031 24h-16.207031c-13.230469 0-24 10.769531-24 24v16c0 10.414062 6.710938 19.214844 16 22.527344v9.472656c0 83.816406 68.183594 152 152 152h104v-.390625c2.65625.175781 5.3125.390625 8 .390625 25 0 48.785156-7.71875 68.824219-21.878906 11.480469 3.832031 23.28125 5.878906 35.175781 5.878906 61.761719 0 112-50.238281 112-112 0-56.800781-42.542969-103.753906-97.414062-110.9375zm-54.585938-241.0625h39.191406c-3.710937 18.230469-19.871094 32-39.191406 32h-39.191406c3.710937-18.230469 19.871094-32 39.191406-32zm-192 48h39.191406c-3.71875 18.230469-19.871094 32-39.191406 32h-39.191406c3.710937-18.230469 19.871094-32 39.191406-32zm-96 64c-19.320312 0-35.480469-13.769531-39.191406-32h39.191406c19.320312 0 35.480469 13.769531 39.191406 32zm177.558594-16.214844c16.578125-12.441406 40.441406-9.402344 54.441406 6.3125v17.902344h16v-17.878906c14.257812-15.929688 38.574219-18.59375 55.550781-5.480469 25.707031 19.863281 40.449219 49.855469 40.449219 82.296875 0 19.964844-5.574219 38.949219-16.113281 55.535156-5.816407-14.855468-14.613281-28.511718-26.230469-40.121094l-11.3125 11.3125c10.230469 10.230469 17.914062 22.304688 22.929688 35.425782-15.441407 2.039062-29.867188 7.230468-42.664063 14.917968h-100.035156c-13.679688-12.3125-23.75-27.671874-29.398438-44.824218 6.664063-7.160156 10.824219-16.664063 10.824219-27.183594 0-11.640625-5.078125-22.039062-13.039062-29.351562 5.625-23.441407 19.136718-44.234376 38.597656-58.863282zm-121.558594 136.214844c0-2.929688-.425781-5.832031-1.078125-8.695312 10.253906-1.800782 19.101563-7.511719 25.078125-15.550782 5.304688 7.125 12.886719 12.367188 21.703125 14.734375 1.386719 3.054688 2.296875 6.214844 2.296875 9.511719 0 13.230469-10.769531 24-24 24s-24-10.769531-24-24zm-7.792969 24h-.40625c.0625-.089844.144531-.160156.207031-.246094.054688.085938.128907.15625.199219.246094zm71.792969-24c0-2.929688-.425781-5.832031-1.078125-8.695312 3.007813-.527344 5.933594-1.304688 8.671875-2.472657 4.8125 12.816407 11.8125 24.671875 20.710938 35.167969h-36.503907c5.070313-6.703125 8.199219-14.960938 8.199219-24zm25.023438 59.550781 60.175781 60.433594-84.816407-.074219c1.570313-21.644531 9.738282-42.910156 24.640626-60.359375zm59.65625 76.433594-59.582032 59.472656c-14.738281-17.242187-22.914062-38.160156-24.617187-59.546875zm11.304687 11.320313-.074219 84.304687c-22.078125-1.699219-42.726562-10.304687-59.527344-24.808594zm16-.425782 59.710937 59.960938c-16.847656 14.558594-37.632812 23.144531-59.785156 24.808594zm-36.054687-58.878906h24.789062c-2 6.679688-3.429688 13.601562-4.144531 20.726562zm31.03125-16h-46.96875l-31.863282-32h101.640625c-9.386719 9.183594-17.089843 20.015625-22.808593 32zm-114.960938-144c13.230469 0 24 10.769531 24 24s-10.769531 24-24 24-24-10.769531-24-24 10.769531-24 24-24zm-64 0c13.230469 0 24 10.769531 24 24s-10.769531 24-24 24-24-10.769531-24-24 10.769531-24 24-24zm-88 24c0-13.230469 10.769531-24 24-24s24 10.769531 24 24-10.769531 24-24 24-24-10.769531-24-24zm32 48c0-3.296875.910156-6.457031 2.296875-9.511719 8.816406-2.367187 16.398437-7.609375 21.703125-14.734375 5.304688 7.125 12.886719 12.367188 21.703125 14.734375 1.386719 3.054688 2.296875 6.214844 2.296875 9.511719 0 13.230469-10.769531 24-24 24s-24-10.769531-24-24zm-32 48c0-4.414062 3.585938-8 8-8h173.480469l-2.34375 2.351562c-8.914063 8.945313-16.097657 18.96875-21.617188 29.648438h-149.519531c-4.414062 0-8-3.585938-8-8zm152 184c-74.992188 0-136-61.007812-136-136v-8h134.800781c-14.554687 42.246094-5.199219 91.023438 28.328125 124.703125 7.625 7.65625 16.152344 14.039063 25.253906 19.296875zm216-16c-6.792969 0-13.550781-.832031-20.222656-2.296875.351562-.34375.742187-.648437 1.09375-1l5.617187-5.648437-82.265625-82.605469c-.09375-1.480469-.222656-2.945313-.222656-4.449219 0-49.511719 37.671875-90.367188 85.855469-95.449219 1.390625 6.738281 2.144531 13.664063 2.144531 20.707031v10.742188h16v-10.742188c0-7.113281-.710938-14.097656-1.945312-20.953124 50.113281 3.152343 89.945312 44.800781 89.945312 95.695312 0 52.9375-43.0625 96-96 96zm0 0"/><path d="m448 368c0 35.289062-28.710938 64-64 64v16c44.113281 0 80-35.886719 80-80zm0 0"/></svg>