<svg height="512pt" viewBox="0 -31 512 512" width="512pt" xmlns="http://www.w3.org/2000/svg"><path d="m451 195c0 8.398438-6.597656 15-15 15s-15-6.601562-15-15c0-90.902344-74.097656-165-165-165s-165 74.097656-165 165c0 8.398438-6.597656 15-15 15s-15-6.601562-15-15c0-107.402344 87.597656-195 195-195s195 87.597656 195 195zm0 0" fill="#6b81a1"/><path d="m451 195c0 8.398438-6.597656 15-15 15s-15-6.601562-15-15c0-90.902344-74.097656-165-165-165v-30c107.402344 0 195 87.597656 195 195zm0 0" fill="#466289"/><path d="m23.199219 210 29.699219 177.300781c6 36.300781 37.199218 62.699219 73.800781 62.699219h258.601562c36.601563 0 67.800781-26.398438 73.800781-62.699219l29.699219-177.300781zm0 0" fill="#fee276"/><path d="m488.800781 210-29.699219 177.300781c-6 36.300781-37.199218 62.699219-73.800781 62.699219h-129.300781v-240zm0 0" fill="#fed330"/><path d="m331 360v-30h107.289062l-5 30zm0 0" fill="#fd9e28"/><path d="m271 390h90v30h-90zm0 0" fill="#fd9e28"/><g fill="#fed330"><path d="m78.710938 360-5-30h107.289062v30zm0 0"/><path d="m211 330h90v30h-90zm0 0"/><path d="m151 390h90v30h-90zm0 0"/></g><path d="m455.792969 225-12.503907 75h-52.289062v-75zm0 0" fill="#fd9e28"/><path d="m271 225h90v75h-90zm0 0" fill="#fd9e28"/><path d="m151 225h90v75h-90zm0 0" fill="#fed330"/><path d="m121 225v75h-52.289062l-12.503907-75zm0 0" fill="#fed330"/><path d="m85.152344 390h35.847656v28.957031c-16.683594-2.222656-30.191406-13.234375-35.847656-28.957031zm0 0" fill="#fed330"/><path d="m391 418.957031v-28.957031h35.847656c-5.65625 15.722656-19.164062 26.734375-35.847656 28.957031zm0 0" fill="#fd9e28"/><path d="m256 330h45v30h-45zm0 0" fill="#fd9e28"/><path d="m497 180h-482c-8.402344 0-15 6.597656-15 15v30c0 8.398438 6.597656 15 15 15h482c8.402344 0 15-6.601562 15-15v-30c0-8.402344-6.597656-15-15-15zm0 0" fill="#fee276"/><path d="m512 195v30c0 8.398438-6.597656 15-15 15h-241v-60h241c8.402344 0 15 6.597656 15 15zm0 0" fill="#fed330"/></svg>